<svg xmlns="http://www.w3.org/2000/svg" width="400" height="400"><g fill-rule="evenodd"><path fill="#2fb8ca" d="M0 9v7h400V2H0zm123.07 51.263c-.148.149-.27 3.48-.27 7.404V74.8h44.418l-.109-7.3-.109-7.3-21.83-.103c-12.006-.057-21.951.018-22.1.166m59.199.002c-.148.147-.269 3.478-.269 7.402V74.8h74.018l-.109-7.3-.109-7.3-36.631-.102c-20.147-.056-36.752.019-36.9.167m88.931 7.13V74.8h28.818l-.109-7.3-.109-7.3-14.3-.105-14.3-.105zM4.4 97v6.6h73.2V90.4H4.4zm55.732 22.1c22.402.057 58.942.057 81.2 0 22.257-.057 3.928-.104-40.732-.104s-62.871.047-40.468.104m321.593-.001c3.479.067 9.059.067 12.4 0s.495-.121-6.325-.121-9.554.055-6.075.121m-199.726 7.582c-.109 4.004-.06 7.141.111 6.97s.26-3.447.199-7.281l-.111-6.97zm192.166-.081c.001 3.96.061 5.526.133 3.48s.073-5.286 0-7.2c-.074-1.914-.133-.24-.133 3.72M4.4 157v6.6h103.2v-13.2H4.4zm29.691 29.098L34.2 193l43.892.102 43.892.102.223-.902c.122-.496.171-3.602.108-6.902l-.115-6-44.109-.102-44.11-.102zm103.776-6.631c-.38.38-.32 12.63.065 13.236.252.397 4.939.482 22.094.4L181.8 193l.109-6.9.11-6.9h-21.943c-12.068 0-22.063.12-22.209.267m59.333 6.735v7.002l43.9-.102L285 193l.109-6.9.11-6.9H197.2zM34.269 209.065c-.148.147-.269 3.298-.269 7.002v6.733h74.019l-.11-6.9-.109-6.9-36.631-.102c-20.147-.056-36.752.019-36.9.167m103.524.635c-.122.495-.171 3.6-.108 6.9l.115 6 29.5.103 29.5.102V208.8h-58.785zm74.474-.633c-.147.146-.267 3.296-.267 7v6.733h58.8v-14h-29.133c-16.024 0-29.254.12-29.4.267m-178 29.2c-.334.333-.355 12.637-.024 13.5.319.831 42.85.98 43.677.153.804-.804.664-13.364-.153-13.677-.866-.333-43.167-.31-43.5.024m59.024 6.833.109 7.1h103.2l.109-7.1.109-7.1H93.182zm118.976-6.833c-.381.38-.32 13.031.066 13.638.25.395 3.381.482 14.294.4l13.973-.105.109-7.1.109-7.1h-14.142c-7.779 0-14.263.12-14.409.267m44.003-.004c-.336.336-.36 12.636-.027 13.504.217.566 2.511.633 21.792.633h21.55l.222-.9c.122-.495.17-3.69.107-7.1l-.114-6.2-21.63-.103c-11.896-.057-21.751.018-21.9.166M4.4 275.4v7h73.2v-14H4.4zm29.793 23.1c-.122.495-.17 3.69-.107 7.1l.114 6.2 43.2.11c23.76.06 43.605.012 44.1-.108 1.059-.256 1.44-12.702.42-13.722-.367-.367-10.683-.48-43.992-.48H34.415zm103.89-.423c-.807.807-.669 13.366.15 13.68.348.134 13.672.243 29.609.243h28.976l-.109-7.1-.109-7.1-29.017-.103c-22.238-.078-29.131.011-29.5.38m74.111.418c-.122.498-.171 3.695-.108 7.105l.114 6.2 14.309.105 14.31.105-.11-7.105-.109-7.105-14.091-.105-14.091-.105zm43.999.005c-.122.495-.17 3.69-.107 7.1l.114 6.2H285l.11-6.77c.084-5.149-.012-6.848-.4-7.094-.281-.178-6.762-.327-14.402-.33l-13.893-.006zm-222.102 36 .109 7.3 29.3.103 29.3.102V327.2H33.982zm74 0 .109 7.3H167l.109-7.3.109-7.3h-59.236zm74 0 .109 7.3 29.3.103 29.3.102V327.2h-58.818zM0 393v7h400v-14H0z"/><path fill="#dce4ec" d="M0 30.6v14.6h400V16H0zm18.977 89.115c-.108.283-.148 3.568-.087 7.3L19 133.8h162.8l.109-7.3.109-7.3h-81.422c-66.007 0-81.458.097-81.619.515m355.514 6.785.109 7.3 12.8.009 12.8.009-12.5-.115-12.5-.114v-13.978l12.5-.111 12.5-.112-12.909-.094-12.909-.094zm-192.891.1v7h-162v-14h162zM0 371.4V386h400v-29.2H0z"/><path fill="#3c1424" d="M0 82.2v36.6h400V45.6H0zm167.51-14.829c.083 5.468-.012 7.247-.4 7.493-.586.372-43.118.461-44.077.093-.661-.253-1.001-14.055-.363-14.694.148-.148 10.273-.223 22.5-.166l22.23.103zm88.399.129L255.8 75h-73.6l-.109-7.5-.109-7.5h74.036zm44 0L299.8 75H271l-.11-6.986c-.06-3.842-.021-7.217.088-7.5.155-.406 3.24-.514 14.618-.514h14.422zM78.2 97.2v7h-74l-.11-6.585c-.061-3.621-.021-6.817.088-7.102.161-.419 7.213-.498 37.11-.415L78.2 90.2zM0 245.2v111.2h400V134H0zm107.8-88.4v7H4.2l-.11-6.585c-.061-3.621-.021-6.817.088-7.101.161-.42 9.937-.498 51.91-.416l51.712.102zm14.367 22.243c.872.334.955 13.392.09 14.11-.397.329-12.298.423-44.3.349L34.2 193.4l-.11-6.785c-.061-3.732-.021-7.017.087-7.3.208-.541 86.595-.808 87.99-.272M181.8 186.2v7.2l-21.755.103c-15.733.075-21.906-.021-22.3-.349-.756-.627-.798-13.784-.045-14.091.275-.112 10.31-.172 22.3-.133l21.8.07zm103.31-7.064c.388.246.483 1.985.4 7.294l-.11 6.97-43.975.102c-34.916.081-44.041-.002-44.294-.4-.384-.605-.444-13.656-.064-14.035.385-.386 87.434-.317 88.043.069M107.8 215.8v7.2H34.2l-.11-6.785c-.061-3.732-.021-7.018.088-7.302.161-.419 7.201-.498 36.91-.415l36.712.102zm89.207-6.5c.122.495.17 3.78.107 7.3L197 223l-29 .11c-15.95.061-29.405.012-29.9-.107-1.059-.257-1.441-13.102-.42-14.123.365-.365 7.527-.48 29.792-.48h29.313zm74 0c.122.495.17 3.78.107 7.3L271 223h-58.8l-.11-6.785c-.061-3.732-.021-7.017.087-7.3.159-.413 5.963-.515 29.403-.515h29.205zM78.709 244.862c.094 5.678.015 6.757-.532 7.303-.575.576-2.871.631-22.309.538L34.2 252.6l-.109-7.303-.109-7.304 22.309.104 22.309.103zm118.405-.262c.063 3.52.015 6.805-.107 7.3l-.222.9h-51.75c-46.82 0-51.773-.06-51.992-.633-.332-.865-.309-13.568.025-13.902.148-.147 23.593-.222 52.1-.166L197 238.2zm44 0c.063 3.52.014 6.807-.109 7.305l-.223.905-14.291-.105-14.291-.105-.109-7.305-.109-7.305 14.509.105L241 238.2zm58.795.7-.109 7.3h-43.6l-.109-7.3-.109-7.3h44.036zm-221.6 30 .109 7.5H4v-7.333c0-4.034.121-7.455.269-7.602s16.843-.223 37.1-.167l36.831.102zm43.872 22.538c.542.543.622 1.636.528 7.3l-.109 6.662-44.3.102-44.3.101v-7.135c0-3.924.12-7.255.267-7.401.659-.66 87.249-.294 87.914.371m74.826.262c.122.495.17 3.78.107 7.3l-.114 6.4h-59.6l-.109-6.662c-.094-5.664-.014-6.757.528-7.3.572-.572 3.639-.638 29.802-.638h29.164zm44 0c.122.495.17 3.78.107 7.3l-.114 6.4-14.5.105-14.5.105v-7.138c0-3.926.12-7.259.267-7.405.146-.147 6.623-.267 14.392-.267h14.126zm44.154-.347c.315.38.424 2.663.349 7.3l-.11 6.747-14.7.105-14.7.105v-7.138c0-3.926.12-7.259.267-7.405.577-.577 28.406-.302 28.894.286M93 334.4v7.4l-29.5.103-29.5.102v-7.336c0-4.035.121-7.457.269-7.605s13.423-.223 29.5-.167L93 327zm74.11-7.264c.388.246.483 2.025.4 7.493l-.11 7.171-29.7.103-29.7.102v-7.336c0-4.035.12-7.456.267-7.602.385-.385 58.234-.318 58.843.069M241 334.4v7.4l-29.5.103-29.5.102v-7.336c0-4.035.121-7.457.269-7.605s13.423-.223 29.5-.167L241 327z"/><path fill="#2c5cc4" d="M0 1.2c0 .799.267.8 200 .8s200-.001 200-.8-.267-.8-200-.8S0 .401 0 1.2m99.9 44.3c55.055.056 145.145.056 200.2 0s10.01-.102-100.1-.102-155.155.046-100.1.102m22.678 15.014c-.109.283-.148 3.658-.087 7.5l.111 6.986.199-7.5c.195-7.36.174-8.022-.223-6.986m44.621 7.005.199 7.481.111-7.17c.06-3.944-.029-7.311-.199-7.481-.171-.171-.22 3.056-.111 7.17m103.787.181L271 75l14.2.008 14.2.007-14.091-.112-14.091-.113-.123-7.195-.123-7.196zm-136.858 7.4c6.121.062 16.021.062 22 0 5.98-.063.972-.113-11.128-.113s-16.992.051-10.872.113m66.602 0c10.192.059 26.752.059 36.8 0 10.049-.06 1.71-.108-18.53-.108s-28.461.048-18.27.108M4.178 90.513c-.109.285-.149 3.481-.088 7.102l.11 6.585h74v-14l-36.912-.102c-29.897-.083-36.949-.004-37.11.415M77.6 97v6.6H4.4V90.4h73.2zM0 126.4v7.6h9.5l9.5.001-.118-7.266c-.091-5.614 0-7.34.4-7.594.285-.181-3.937-.332-9.382-.335L0 118.8zm181.969-7.037c.328.395.432 2.665.349 7.6l-.118 7.038 96.4-.032c53.02-.018 96.175-.123 95.9-.234-1.052-.424-.676-14.09.4-14.523.54-.217-37.906-.371-96.249-.387-83.46-.021-97.083.054-96.682.538M4.178 150.114c-.109.284-.149 3.48-.088 7.101l.11 6.585h103.6v-14l-51.712-.102c-41.973-.082-51.749-.004-51.91.416M107.6 157v6.6H4.4v-13.2h103.2zm-29.4 22.197 44 .203.115 6c.063 3.3.014 6.407-.109 6.903l-.223.904-43.953-.104c-24.175-.056-43.87.032-43.768.197.336.543 87.513.365 88.058-.18.805-.805.665-13.764-.153-14.077-.348-.134-20.283-.199-44.3-.146l-43.667.098zm59.5-.132c-.697.281-.715 13.36-.02 14.055.544.544 43.724.72 44.058.18.102-.165-9.693-.252-21.767-.193l-21.952.106-.224-.906c-.124-.499-.173-3.607-.11-6.907l.115-6 22-.205 22-.205-21.8-.064c-11.99-.034-22.025.028-22.3.139m59.277.25c-.109.284-.143 3.479-.077 7.1l.121 6.585.09-6.898.089-6.898 43.9-.104 43.9-.104-43.913-.098c-35.529-.079-43.95 0-44.11.417M285.195 186l-.195 7-44 .203-44 .202 44.113.098c35.662.078 44.15-.002 44.31-.418.108-.283.145-3.568.082-7.3l-.116-6.785zM34.262 208.7c-.102.165 16.43.3 36.738.3s36.84-.135 36.738-.3-16.634-.3-36.738-.3-36.636.135-36.738.3m103.418.18c-1.021 1.021-.639 13.866.42 14.123.495.119 13.95.168 29.9.107l29-.11.015-6.9.014-6.901-.124 6.803-.124 6.803-29.49-.102-29.491-.103-.115-6c-.063-3.3-.015-6.404.107-6.897l.222-.898 29.493-.105 29.493-.105-29.42-.098c-22.458-.074-29.534.017-29.9.383m74.582-.18c-.169.272 21.315.269 48.338-.008 5.72-.058-2.774-.148-18.876-.199s-29.36.042-29.462.207m58.627 7.197-.089 6.898-29.3.105-29.3.105 29.313.098c23.616.078 29.351-.003 29.51-.418.109-.284.143-3.479.077-7.1l-.121-6.585zM52.73 223.1c10.192.059 26.752.059 36.8 0 10.049-.06 1.71-.108-18.53-.108s-28.461.048-18.27.108m25.26 15.163c.612.304.547 13.04-.07 13.657-.631.631-43.344.7-43.657.07-.111-.226-.157-.18-.1.1.176.865 43.151.939 44.014.075.846-.845.765-13.83-.087-14.002-.281-.057-.326-.012-.1.1m14.896 6.604c-.047 3.667.023 6.952.157 7.3.372.97 103.542.97 103.914 0 .134-.348.204-3.633.157-7.3l-.085-6.667-.215 7-.214 7H93.4l-.214-7-.215-7zm147.908.333-.194 7-13.973.105c-10.898.082-14.052-.006-14.331-.4-.267-.378-.316-.355-.193.095.141.517 2.147.615 14.421.705l14.258.105.223-.905c.123-.498.17-3.785.103-7.305l-.12-6.4zm15.369 6.89c.083.406 4.544.51 21.837.51s21.754-.104 21.837-.51c.057-.28.012-.326-.1-.1-.135.272-7.43.41-21.737.41s-21.602-.138-21.737-.41c-.112-.226-.156-.18-.1.1M4.269 267.865c-.148.147-.269 3.568-.269 7.602v7.333h74.418l-.109-7.5-.109-7.5-36.831-.102c-20.257-.056-36.952.019-37.1.167M77.6 275.4v7H4.4v-14h73.2zm-43.416 22.227c-.145.234-.156.534-.024.666s.24.03.24-.226c0-.686 86.834-.673 87.52.013.617.617.682 13.353.07 13.657-.225.112-.18.157.1.1.849-.171.933-13.157.091-13.999-.791-.79-87.511-.999-87.997-.211m103.635.211c-.842.842-.758 13.828.091 13.999.281.057.326.012.1-.1-.668-.331-.542-13.129.134-13.691.396-.328 8.442-.423 29.5-.349l28.956.103.214 7 .215 7 .085-6.667c.047-3.667-.023-6.952-.157-7.3-.372-.971-58.167-.966-59.138.005m74.448-.371c-.147.146-.264.461-.261.7.004.253.139.223.327-.072.25-.395 3.381-.482 14.294-.4l13.973.105.214 7 .215 7 .085-6.667c.047-3.667-.023-6.952-.157-7.3-.253-.66-28.042-1.014-28.69-.366m43.917.16c-.145.234-.156.534-.024.666s.24.03.24-.226c0-.552 27.455-.674 28.319-.126.4.254.491 1.895.4 7.157-.066 3.755.016 6.743.181 6.641.527-.327.358-13.521-.18-14.059-.643-.643-28.541-.694-28.936-.053M63.491 327.099l29.291.106.123 7.098.122 7.097-.013-7.2L93 327l-29.4-.004-29.4-.004zm59.409.001c8.085.06 21.315.06 29.4 0 8.085-.061 1.47-.11-14.7-.11s-22.785.049-14.7.11m88.591-.001 29.291.106.123 7.098.122 7.097-.013-7.2L241 327l-29.4-.004-29.4-.004zm-44.292 7.382c-.109 4.114-.06 7.341.111 7.17.17-.17.259-3.537.199-7.481l-.111-7.17zM99.9 356.7c55.055.056 145.145.056 200.2 0s10.01-.102-100.1-.102-155.155.046-100.1.102"/><path fill="#fcfcfc" d="M19.6 126.6v7h162v-14h-162zm355.6 0v7H400v-14h-24.8z"/></g></svg>