<svg id="svg" version="1.1" xmlns="http://www.w3.org/2000/svg" xmlns:xlink="http://www.w3.org/1999/xlink" width="400" height="400" viewBox="0, 0, 400,400"><g id="svgg"><path id="path0" d="M0.000 9.000 L 0.000 16.000 200.000 16.000 L 400.000 16.000 400.000 9.000 L 400.000 2.000 200.000 2.000 L 0.000 2.000 0.000 9.000 M123.070 60.263 C 122.922 60.412,122.800 63.743,122.800 67.667 L 122.800 74.800 145.009 74.800 L 167.218 74.800 167.109 67.500 L 167.000 60.200 145.170 60.097 C 133.164 60.040,123.219 60.115,123.070 60.263 M182.269 60.265 C 182.121 60.412,182.000 63.743,182.000 67.667 L 182.000 74.800 219.009 74.800 L 256.018 74.800 255.909 67.500 L 255.800 60.200 219.169 60.098 C 199.022 60.042,182.417 60.117,182.269 60.265 M271.200 67.395 L 271.200 74.800 285.609 74.800 L 300.018 74.800 299.909 67.500 L 299.800 60.200 285.500 60.095 L 271.200 59.990 271.200 67.395 M4.400 97.000 L 4.400 103.600 41.000 103.600 L 77.600 103.600 77.600 97.000 L 77.600 90.400 41.000 90.400 L 4.400 90.400 4.400 97.000 M60.132 119.100 C 82.534 119.157,119.074 119.157,141.332 119.100 C 163.589 119.043,145.260 118.996,100.600 118.996 C 55.940 118.996,37.729 119.043,60.132 119.100 M381.725 119.099 C 385.204 119.166,390.784 119.166,394.125 119.099 C 397.466 119.032,394.620 118.978,387.800 118.978 C 380.980 118.978,378.246 119.033,381.725 119.099 M181.999 126.681 C 181.890 130.685,181.939 133.822,182.110 133.651 C 182.280 133.480,182.370 130.204,182.309 126.370 L 182.198 119.400 181.999 126.681 M374.165 126.600 C 374.166 130.560,374.226 132.126,374.298 130.080 C 374.371 128.034,374.371 124.794,374.298 122.880 C 374.224 120.966,374.165 122.640,374.165 126.600 M4.400 157.000 L 4.400 163.600 56.000 163.600 L 107.600 163.600 107.600 157.000 L 107.600 150.400 56.000 150.400 L 4.400 150.400 4.400 157.000 M34.091 186.098 L 34.200 193.000 78.092 193.102 L 121.984 193.204 122.207 192.302 C 122.329 191.806,122.378 188.700,122.315 185.400 L 122.200 179.400 78.091 179.298 L 33.981 179.196 34.091 186.098 M137.867 179.467 C 137.487 179.847,137.547 192.097,137.932 192.703 C 138.184 193.100,142.871 193.185,160.026 193.103 L 181.800 193.000 181.909 186.100 L 182.019 179.200 160.076 179.200 C 148.008 179.200,138.013 179.320,137.867 179.467 M197.200 186.202 L 197.200 193.204 241.100 193.102 L 285.000 193.000 285.109 186.100 L 285.219 179.200 241.209 179.200 L 197.200 179.200 197.200 186.202 M34.269 209.065 C 34.121 209.212,34.000 212.363,34.000 216.067 L 34.000 222.800 71.009 222.800 L 108.019 222.800 107.909 215.900 L 107.800 209.000 71.169 208.898 C 51.022 208.842,34.417 208.917,34.269 209.065 M137.793 209.700 C 137.671 210.195,137.622 213.300,137.685 216.600 L 137.800 222.600 167.300 222.703 L 196.800 222.805 196.800 215.803 L 196.800 208.800 167.408 208.800 L 138.015 208.800 137.793 209.700 M212.267 209.067 C 212.120 209.213,212.000 212.363,212.000 216.067 L 212.000 222.800 241.400 222.800 L 270.800 222.800 270.800 215.800 L 270.800 208.800 241.667 208.800 C 225.643 208.800,212.413 208.920,212.267 209.067 M34.267 238.267 C 33.933 238.600,33.912 250.904,34.243 251.767 C 34.562 252.598,77.093 252.747,77.920 251.920 C 78.724 251.116,78.584 238.556,77.767 238.243 C 76.901 237.910,34.600 237.933,34.267 238.267 M93.291 245.100 L 93.400 252.200 145.000 252.200 L 196.600 252.200 196.709 245.100 L 196.818 238.000 145.000 238.000 L 93.182 238.000 93.291 245.100 M212.267 238.267 C 211.886 238.647,211.947 251.298,212.333 251.905 C 212.583 252.300,215.714 252.387,226.627 252.305 L 240.600 252.200 240.709 245.100 L 240.818 238.000 226.676 238.000 C 218.897 238.000,212.413 238.120,212.267 238.267 M256.270 238.263 C 255.934 238.599,255.910 250.899,256.243 251.767 C 256.460 252.333,258.754 252.400,278.035 252.400 L 299.585 252.400 299.807 251.500 C 299.929 251.005,299.977 247.810,299.914 244.400 L 299.800 238.200 278.170 238.097 C 266.274 238.040,256.419 238.115,256.270 238.263 M4.400 275.400 L 4.400 282.400 41.000 282.400 L 77.600 282.400 77.600 275.400 L 77.600 268.400 41.000 268.400 L 4.400 268.400 4.400 275.400 M34.193 298.500 C 34.071 298.995,34.023 302.190,34.086 305.600 L 34.200 311.800 77.400 311.910 C 101.160 311.970,121.005 311.922,121.500 311.802 C 122.559 311.546,122.940 299.100,121.920 298.080 C 121.553 297.713,111.237 297.600,77.928 297.600 L 34.415 297.600 34.193 298.500 M138.083 298.077 C 137.276 298.884,137.414 311.443,138.233 311.757 C 138.581 311.891,151.905 312.000,167.842 312.000 L 196.818 312.000 196.709 304.900 L 196.600 297.800 167.583 297.697 C 145.345 297.619,138.452 297.708,138.083 298.077 M212.194 298.495 C 212.072 298.993,212.023 302.190,212.086 305.600 L 212.200 311.800 226.509 311.905 L 240.819 312.010 240.709 304.905 L 240.600 297.800 226.509 297.695 L 212.418 297.590 212.194 298.495 M256.193 298.500 C 256.071 298.995,256.023 302.190,256.086 305.600 L 256.200 311.800 270.600 311.800 L 285.000 311.800 285.110 305.030 C 285.194 299.881,285.098 298.182,284.710 297.936 C 284.429 297.758,277.948 297.609,270.308 297.606 L 256.415 297.600 256.193 298.500 M34.091 334.500 L 34.200 341.800 63.500 341.903 L 92.800 342.005 92.800 334.603 L 92.800 327.200 63.391 327.200 L 33.982 327.200 34.091 334.500 M108.091 334.500 L 108.200 341.800 137.600 341.800 L 167.000 341.800 167.109 334.500 L 167.218 327.200 137.600 327.200 L 107.982 327.200 108.091 334.500 M182.091 334.500 L 182.200 341.800 211.500 341.903 L 240.800 342.005 240.800 334.603 L 240.800 327.200 211.391 327.200 L 181.982 327.200 182.091 334.500 M0.000 393.000 L 0.000 400.000 200.000 400.000 L 400.000 400.000 400.000 393.000 L 400.000 386.000 200.000 386.000 L 0.000 386.000 0.000 393.000 " stroke="none" fill="#2fb8ca" fill-rule="evenodd"></path><path id="path1" d="M0.000 30.600 L 0.000 45.200 200.000 45.200 L 400.000 45.200 400.000 30.600 L 400.000 16.000 200.000 16.000 L 0.000 16.000 0.000 30.600 M18.977 119.715 C 18.869 119.998,18.829 123.283,18.890 127.015 L 19.000 133.800 100.400 133.800 L 181.800 133.800 181.909 126.500 L 182.018 119.200 100.596 119.200 C 34.589 119.200,19.138 119.297,18.977 119.715 M374.491 126.500 L 374.600 133.800 387.400 133.809 L 400.200 133.818 387.700 133.703 L 375.200 133.589 375.200 126.600 L 375.200 119.611 387.700 119.500 L 400.200 119.388 387.291 119.294 L 374.382 119.200 374.491 126.500 M181.600 126.600 L 181.600 133.600 100.600 133.600 L 19.600 133.600 19.600 126.600 L 19.600 119.600 100.600 119.600 L 181.600 119.600 181.600 126.600 M0.000 371.400 L 0.000 386.000 200.000 386.000 L 400.000 386.000 400.000 371.400 L 400.000 356.800 200.000 356.800 L 0.000 356.800 0.000 371.400 " stroke="none" fill="#dce4ec" fill-rule="evenodd"></path><path id="path2" d="M0.000 82.200 L 0.000 118.800 200.000 118.800 L 400.000 118.800 400.000 82.200 L 400.000 45.600 200.000 45.600 L 0.000 45.600 0.000 82.200 M167.510 67.371 C 167.593 72.839,167.498 74.618,167.110 74.864 C 166.524 75.236,123.992 75.325,123.033 74.957 C 122.372 74.704,122.032 60.902,122.670 60.263 C 122.818 60.115,132.943 60.040,145.170 60.097 L 167.400 60.200 167.510 67.371 M255.909 67.500 L 255.800 75.000 219.000 75.000 L 182.200 75.000 182.091 67.500 L 181.982 60.000 219.000 60.000 L 256.018 60.000 255.909 67.500 M299.909 67.500 L 299.800 75.000 285.400 75.000 L 271.000 75.000 270.890 68.014 C 270.830 64.172,270.869 60.797,270.978 60.514 C 271.133 60.108,274.218 60.000,285.596 60.000 L 300.018 60.000 299.909 67.500 M78.200 97.200 L 78.200 104.200 41.200 104.200 L 4.200 104.200 4.090 97.615 C 4.029 93.994,4.069 90.798,4.178 90.513 C 4.339 90.094,11.391 90.015,41.288 90.098 L 78.200 90.200 78.200 97.200 M0.000 245.200 L 0.000 356.400 200.000 356.400 L 400.000 356.400 400.000 245.200 L 400.000 134.000 200.000 134.000 L 0.000 134.000 0.000 245.200 M107.800 156.800 L 107.800 163.800 56.000 163.800 L 4.200 163.800 4.090 157.215 C 4.029 153.594,4.069 150.398,4.178 150.114 C 4.339 149.694,14.115 149.616,56.088 149.698 L 107.800 149.800 107.800 156.800 M122.167 179.043 C 123.039 179.377,123.122 192.435,122.257 193.153 C 121.860 193.482,109.959 193.576,77.957 193.502 L 34.200 193.400 34.090 186.615 C 34.029 182.883,34.069 179.598,34.177 179.315 C 34.385 178.774,120.772 178.507,122.167 179.043 M181.800 186.200 L 181.800 193.400 160.045 193.503 C 144.312 193.578,138.139 193.482,137.745 193.154 C 136.989 192.527,136.947 179.370,137.700 179.063 C 137.975 178.951,148.010 178.891,160.000 178.930 L 181.800 179.000 181.800 186.200 M285.110 179.136 C 285.498 179.382,285.593 181.121,285.510 186.430 L 285.400 193.400 241.425 193.502 C 206.509 193.583,197.384 193.500,197.131 193.102 C 196.747 192.497,196.687 179.446,197.067 179.067 C 197.452 178.681,284.501 178.750,285.110 179.136 M107.800 215.800 L 107.800 223.000 71.000 223.000 L 34.200 223.000 34.090 216.215 C 34.029 212.483,34.069 209.197,34.178 208.913 C 34.339 208.494,41.379 208.415,71.088 208.498 L 107.800 208.600 107.800 215.800 M197.007 209.300 C 197.129 209.795,197.177 213.080,197.114 216.600 L 197.000 223.000 168.000 223.110 C 152.050 223.171,138.595 223.122,138.100 223.003 C 137.041 222.746,136.659 209.901,137.680 208.880 C 138.045 208.515,145.207 208.400,167.472 208.400 L 196.785 208.400 197.007 209.300 M271.007 209.300 C 271.129 209.795,271.177 213.080,271.114 216.600 L 271.000 223.000 241.600 223.000 L 212.200 223.000 212.090 216.215 C 212.029 212.483,212.069 209.198,212.177 208.915 C 212.336 208.502,218.140 208.400,241.580 208.400 L 270.785 208.400 271.007 209.300 M78.709 244.862 C 78.803 250.540,78.724 251.619,78.177 252.165 C 77.602 252.741,75.306 252.796,55.868 252.703 L 34.200 252.600 34.091 245.297 L 33.982 237.993 56.291 238.097 L 78.600 238.200 78.709 244.862 M197.114 244.600 C 197.177 248.120,197.129 251.405,197.007 251.900 L 196.785 252.800 145.035 252.800 C 98.215 252.800,93.262 252.740,93.043 252.167 C 92.711 251.302,92.734 238.599,93.068 238.265 C 93.216 238.118,116.661 238.043,145.168 238.099 L 197.000 238.200 197.114 244.600 M241.114 244.600 C 241.177 248.120,241.128 251.407,241.005 251.905 L 240.782 252.810 226.491 252.705 L 212.200 252.600 212.091 245.295 L 211.982 237.990 226.491 238.095 L 241.000 238.200 241.114 244.600 M299.909 245.300 L 299.800 252.600 278.000 252.600 L 256.200 252.600 256.091 245.300 L 255.982 238.000 278.000 238.000 L 300.018 238.000 299.909 245.300 M78.309 275.300 L 78.418 282.800 41.209 282.800 L 4.000 282.800 4.000 275.467 C 4.000 271.433,4.121 268.012,4.269 267.865 C 4.417 267.717,21.112 267.642,41.369 267.698 L 78.200 267.800 78.309 275.300 M122.181 297.838 C 122.723 298.381,122.803 299.474,122.709 305.138 L 122.600 311.800 78.300 311.902 L 34.000 312.003 34.000 304.868 C 34.000 300.944,34.120 297.613,34.267 297.467 C 34.926 296.807,121.516 297.173,122.181 297.838 M197.007 298.100 C 197.129 298.595,197.177 301.880,197.114 305.400 L 197.000 311.800 167.200 311.800 L 137.400 311.800 137.291 305.138 C 137.197 299.474,137.277 298.381,137.819 297.838 C 138.391 297.266,141.458 297.200,167.621 297.200 L 196.785 297.200 197.007 298.100 M241.007 298.100 C 241.129 298.595,241.177 301.880,241.114 305.400 L 241.000 311.800 226.500 311.905 L 212.000 312.010 212.000 304.872 C 212.000 300.946,212.120 297.613,212.267 297.467 C 212.413 297.320,218.890 297.200,226.659 297.200 L 240.785 297.200 241.007 298.100 M285.161 297.753 C 285.476 298.133,285.585 300.416,285.510 305.053 L 285.400 311.800 270.700 311.905 L 256.000 312.010 256.000 304.872 C 256.000 300.946,256.120 297.613,256.267 297.467 C 256.844 296.890,284.673 297.165,285.161 297.753 M93.000 334.400 L 93.000 341.800 63.500 341.903 L 34.000 342.005 34.000 334.669 C 34.000 330.634,34.121 327.212,34.269 327.064 C 34.417 326.916,47.692 326.841,63.769 326.897 L 93.000 327.000 93.000 334.400 M167.110 327.136 C 167.498 327.382,167.593 329.161,167.510 334.629 L 167.400 341.800 137.700 341.903 L 108.000 342.005 108.000 334.669 C 108.000 330.634,108.120 327.213,108.267 327.067 C 108.652 326.682,166.501 326.749,167.110 327.136 M241.000 334.400 L 241.000 341.800 211.500 341.903 L 182.000 342.005 182.000 334.669 C 182.000 330.634,182.121 327.212,182.269 327.064 C 182.417 326.916,195.692 326.841,211.769 326.897 L 241.000 327.000 241.000 334.400 " stroke="none" fill="#3c1424" fill-rule="evenodd"></path><path id="path3" d="M0.000 1.200 C 0.000 1.999,0.267 2.000,200.000 2.000 C 399.733 2.000,400.000 1.999,400.000 1.200 C 400.000 0.401,399.733 0.400,200.000 0.400 C 0.267 0.400,0.000 0.401,0.000 1.200 M99.900 45.500 C 154.955 45.556,245.045 45.556,300.100 45.500 C 355.155 45.444,310.110 45.398,200.000 45.398 C 89.890 45.398,44.845 45.444,99.900 45.500 M122.578 60.514 C 122.469 60.797,122.430 64.172,122.491 68.014 L 122.602 75.000 122.801 67.500 C 122.996 60.140,122.975 59.478,122.578 60.514 M167.199 67.519 L 167.398 75.000 167.509 67.830 C 167.569 63.886,167.480 60.519,167.310 60.349 C 167.139 60.178,167.090 63.405,167.199 67.519 M270.986 67.700 L 271.000 75.000 285.200 75.008 L 299.400 75.015 285.309 74.903 L 271.218 74.790 271.095 67.595 L 270.972 60.399 270.986 67.700 M134.128 75.100 C 140.249 75.162,150.149 75.162,156.128 75.100 C 162.108 75.037,157.100 74.987,145.000 74.987 C 132.900 74.987,128.008 75.038,134.128 75.100 M200.730 75.100 C 210.922 75.159,227.482 75.159,237.530 75.100 C 247.579 75.040,239.240 74.992,219.000 74.992 C 198.760 74.992,190.539 75.040,200.730 75.100 M4.178 90.513 C 4.069 90.798,4.029 93.994,4.090 97.615 L 4.200 104.200 41.200 104.200 L 78.200 104.200 78.200 97.200 L 78.200 90.200 41.288 90.098 C 11.391 90.015,4.339 90.094,4.178 90.513 M77.600 97.000 L 77.600 103.600 41.000 103.600 L 4.400 103.600 4.400 97.000 L 4.400 90.400 41.000 90.400 L 77.600 90.400 77.600 97.000 M0.000 126.400 L 0.000 134.000 9.500 134.000 L 19.000 134.001 18.882 126.735 C 18.791 121.121,18.882 119.395,19.282 119.141 C 19.567 118.960,15.345 118.809,9.900 118.806 L 0.000 118.800 0.000 126.400 M181.969 119.363 C 182.297 119.758,182.401 122.028,182.318 126.963 L 182.200 134.001 278.600 133.969 C 331.620 133.951,374.775 133.846,374.500 133.735 C 373.448 133.311,373.824 119.645,374.900 119.212 C 375.440 118.995,336.994 118.841,278.651 118.825 C 195.191 118.804,181.568 118.879,181.969 119.363 M4.178 150.114 C 4.069 150.398,4.029 153.594,4.090 157.215 L 4.200 163.800 56.000 163.800 L 107.800 163.800 107.800 156.800 L 107.800 149.800 56.088 149.698 C 14.115 149.616,4.339 149.694,4.178 150.114 M107.600 157.000 L 107.600 163.600 56.000 163.600 L 4.400 163.600 4.400 157.000 L 4.400 150.400 56.000 150.400 L 107.600 150.400 107.600 157.000 M78.200 179.197 L 122.200 179.400 122.315 185.400 C 122.378 188.700,122.329 191.807,122.206 192.303 L 121.983 193.207 78.030 193.103 C 53.855 193.047,34.160 193.135,34.262 193.300 C 34.598 193.843,121.775 193.665,122.320 193.120 C 123.125 192.315,122.985 179.356,122.167 179.043 C 121.819 178.909,101.884 178.844,77.867 178.897 L 34.200 178.995 78.200 179.197 M137.700 179.065 C 137.003 179.346,136.985 192.425,137.680 193.120 C 138.224 193.664,181.404 193.840,181.738 193.300 C 181.840 193.135,172.045 193.048,159.971 193.107 L 138.019 193.213 137.795 192.307 C 137.671 191.808,137.622 188.700,137.685 185.400 L 137.800 179.400 159.800 179.195 L 181.800 178.990 160.000 178.926 C 148.010 178.892,137.975 178.954,137.700 179.065 M196.977 179.315 C 196.868 179.599,196.834 182.794,196.900 186.415 L 197.021 193.000 197.111 186.102 L 197.200 179.204 241.100 179.100 L 285.000 178.996 241.087 178.898 C 205.558 178.819,197.137 178.898,196.977 179.315 M285.195 186.000 L 285.000 193.000 241.000 193.203 L 197.000 193.405 241.113 193.503 C 276.775 193.581,285.263 193.501,285.423 193.085 C 285.531 192.802,285.568 189.517,285.505 185.785 L 285.389 179.000 285.195 186.000 M34.262 208.700 C 34.160 208.865,50.692 209.000,71.000 209.000 C 91.308 209.000,107.840 208.865,107.738 208.700 C 107.636 208.535,91.104 208.400,71.000 208.400 C 50.896 208.400,34.364 208.535,34.262 208.700 M137.680 208.880 C 136.659 209.901,137.041 222.746,138.100 223.003 C 138.595 223.122,152.050 223.171,168.000 223.110 L 197.000 223.000 197.015 216.100 L 197.029 209.199 196.905 216.002 L 196.781 222.805 167.291 222.703 L 137.800 222.600 137.685 216.600 C 137.622 213.300,137.670 210.196,137.792 209.703 L 138.014 208.805 167.507 208.700 L 197.000 208.595 167.580 208.497 C 145.122 208.423,138.046 208.514,137.680 208.880 M212.262 208.700 C 212.093 208.972,233.577 208.969,260.600 208.692 C 266.320 208.634,257.826 208.544,241.724 208.493 C 225.622 208.442,212.364 208.535,212.262 208.700 M270.889 215.897 L 270.800 222.795 241.500 222.900 L 212.200 223.005 241.513 223.103 C 265.129 223.181,270.864 223.100,271.023 222.685 C 271.132 222.401,271.166 219.206,271.100 215.585 L 270.979 209.000 270.889 215.897 M52.730 223.100 C 62.922 223.159,79.482 223.159,89.530 223.100 C 99.579 223.040,91.240 222.992,71.000 222.992 C 50.760 222.992,42.539 223.040,52.730 223.100 M77.990 238.263 C 78.602 238.567,78.537 251.303,77.920 251.920 C 77.289 252.551,34.576 252.620,34.263 251.990 C 34.152 251.764,34.106 251.810,34.163 252.090 C 34.339 252.955,77.314 253.029,78.177 252.165 C 79.023 251.320,78.942 238.335,78.090 238.163 C 77.809 238.106,77.764 238.151,77.990 238.263 M92.886 244.867 C 92.839 248.534,92.909 251.819,93.043 252.167 C 93.415 253.137,196.585 253.137,196.957 252.167 C 197.091 251.819,197.161 248.534,197.114 244.867 L 197.029 238.200 196.814 245.200 L 196.600 252.200 145.000 252.200 L 93.400 252.200 93.186 245.200 L 92.971 238.200 92.886 244.867 M240.794 245.200 L 240.600 252.200 226.627 252.305 C 215.729 252.387,212.575 252.299,212.296 251.905 C 212.029 251.527,211.980 251.550,212.103 252.000 C 212.244 252.517,214.250 252.615,226.524 252.705 L 240.782 252.810 241.005 251.905 C 241.128 251.407,241.175 248.120,241.108 244.600 L 240.988 238.200 240.794 245.200 M256.163 252.090 C 256.246 252.496,260.707 252.600,278.000 252.600 C 295.293 252.600,299.754 252.496,299.837 252.090 C 299.894 251.810,299.849 251.764,299.737 251.990 C 299.602 252.262,292.307 252.400,278.000 252.400 C 263.693 252.400,256.398 252.262,256.263 251.990 C 256.151 251.764,256.107 251.810,256.163 252.090 M4.269 267.865 C 4.121 268.012,4.000 271.433,4.000 275.467 L 4.000 282.800 41.209 282.800 L 78.418 282.800 78.309 275.300 L 78.200 267.800 41.369 267.698 C 21.112 267.642,4.417 267.717,4.269 267.865 M77.600 275.400 L 77.600 282.400 41.000 282.400 L 4.400 282.400 4.400 275.400 L 4.400 268.400 41.000 268.400 L 77.600 268.400 77.600 275.400 M34.184 297.627 C 34.039 297.861,34.028 298.161,34.160 298.293 C 34.292 298.425,34.400 298.323,34.400 298.067 C 34.400 297.381,121.234 297.394,121.920 298.080 C 122.537 298.697,122.602 311.433,121.990 311.737 C 121.765 311.849,121.810 311.894,122.090 311.837 C 122.939 311.666,123.023 298.680,122.181 297.838 C 121.390 297.048,34.670 296.839,34.184 297.627 M137.819 297.838 C 136.977 298.680,137.061 311.666,137.910 311.837 C 138.191 311.894,138.236 311.849,138.010 311.737 C 137.342 311.406,137.468 298.608,138.144 298.046 C 138.540 297.718,146.586 297.623,167.644 297.697 L 196.600 297.800 196.814 304.800 L 197.029 311.800 197.114 305.133 C 197.161 301.466,197.091 298.181,196.957 297.833 C 196.585 296.862,138.790 296.867,137.819 297.838 M212.267 297.467 C 212.120 297.613,212.003 297.928,212.006 298.167 C 212.010 298.420,212.145 298.390,212.333 298.095 C 212.583 297.700,215.714 297.613,226.627 297.695 L 240.600 297.800 240.814 304.800 L 241.029 311.800 241.114 305.133 C 241.161 301.466,241.091 298.181,240.957 297.833 C 240.704 297.173,212.915 296.819,212.267 297.467 M256.184 297.627 C 256.039 297.861,256.028 298.161,256.160 298.293 C 256.292 298.425,256.400 298.323,256.400 298.067 C 256.400 297.515,283.855 297.393,284.719 297.941 C 285.119 298.195,285.210 299.836,285.119 305.098 C 285.053 308.853,285.135 311.841,285.300 311.739 C 285.827 311.412,285.658 298.218,285.120 297.680 C 284.477 297.037,256.579 296.986,256.184 297.627 M63.491 327.099 L 92.782 327.205 92.905 334.303 L 93.027 341.400 93.014 334.200 L 93.000 327.000 63.600 326.996 L 34.200 326.992 63.491 327.099 M122.900 327.100 C 130.985 327.160,144.215 327.160,152.300 327.100 C 160.385 327.039,153.770 326.990,137.600 326.990 C 121.430 326.990,114.815 327.039,122.900 327.100 M211.491 327.099 L 240.782 327.205 240.905 334.303 L 241.027 341.400 241.014 334.200 L 241.000 327.000 211.600 326.996 L 182.200 326.992 211.491 327.099 M167.199 334.481 C 167.090 338.595,167.139 341.822,167.310 341.651 C 167.480 341.481,167.569 338.114,167.509 334.170 L 167.398 327.000 167.199 334.481 M99.900 356.700 C 154.955 356.756,245.045 356.756,300.100 356.700 C 355.155 356.644,310.110 356.598,200.000 356.598 C 89.890 356.598,44.845 356.644,99.900 356.700 " stroke="none" fill="#2c5cc4" fill-rule="evenodd"></path><path id="path4" d="M19.600 126.600 L 19.600 133.600 100.600 133.600 L 181.600 133.600 181.600 126.600 L 181.600 119.600 100.600 119.600 L 19.600 119.600 19.600 126.600 M375.200 126.600 L 375.200 133.600 387.600 133.600 L 400.000 133.600 400.000 126.600 L 400.000 119.600 387.600 119.600 L 375.200 119.600 375.200 126.600 " stroke="none" fill="#fcfcfc" fill-rule="evenodd"></path></g></svg>
