
		<svg width=500 height=auto xmlns="http://www.w3.org/2000/svg" xmlns:xlink="http://www.w3.org/1999/xlink" version="1.1">
				<defs id="SvgjsDefs1002"/><g id="main_text" rel="mainfill" name="main_text" xmlns:name="mainText_mainfill" fill="#FFFFFF" transform="translate(-2.0350000858306885, 51.77880401611327)"><path d="M2.035 17.981999999999996 l4.773 0 l11.581 13.32 l0 -13.32 l3.811 0 l0 19.166 l-3.811 0 l-10.656 -12.469 l0 12.469 l-3.811 0 l0 -16.317 z M34.854 30.266 l0 3.034 l12.025 0 l0 3.848 l-15.799 0 l0 -19.166 l15.096 0 l0 3.811 l-11.322 0 l0 4.662 c1.665 -0.962 3.774 -1.11 5.994 -1.11 l2.812 0 l0 3.811 l-2.812 0 c-3.515 0 -4.329 0.222 -5.994 1.11 z M69.116 21.792999999999996 l-7.215 0 l0 15.355 l-3.811 0 l0 -15.355 l-6.956 0 l0 -3.811 l17.982 0 l0 3.811 z M78.84700000000001 21.792999999999996 l0 4.366 c1.665 -0.962 3.774 -1.11 5.994 -1.11 l1.961 0 c1.332 0 1.924 -0.555 1.924 -1.665 c0 -1.036 -0.777 -1.591 -1.924 -1.591 l-7.955 0 z M78.84700000000001 30.043999999999997 l0 3.256 l7.955 0 c1.554 0 2.997 -0.37 2.997 -2.22 c0 -1.406 -0.888 -2.146 -2.997 -2.146 l-1.961 0 c-3.515 0 -4.329 0.222 -5.994 1.11 z M93.61 31.153999999999996 c0 3.774 -2.59 5.994 -6.808 5.994 l-11.766 0 l0 -19.166 l11.766 0 c3.145 0 5.809 2.183 5.809 5.402 c0 1.258 -0.333 2.442 -1.258 3.293 c1.443 0.851 2.257 2.59 2.257 4.477 z M117.808 27.416999999999994 c0 -4.292 -3.7 -6.142 -7.326 -6.142 c-3.7 0 -7.326 1.961 -7.326 6.29 s3.7 6.29 7.363 6.29 c3.626 0 7.289 -2.294 7.289 -6.438 z M121.804 27.379999999999995 c0 6.512 -5.55 10.36 -11.359 10.36 s-11.285 -3.774 -11.285 -10.249 c0 -6.512 5.587 -10.138 11.322 -10.138 c5.772 0 11.322 3.367 11.322 10.027 z M145.632 27.416999999999994 c0 -4.292 -3.7 -6.142 -7.326 -6.142 c-3.7 0 -7.326 1.961 -7.326 6.29 s3.7 6.29 7.363 6.29 c3.626 0 7.289 -2.294 7.289 -6.438 z M149.62800000000001 27.379999999999995 c0 6.512 -5.55 10.36 -11.359 10.36 s-11.285 -3.774 -11.285 -10.249 c0 -6.512 5.587 -10.138 11.322 -10.138 c5.772 0 11.322 3.367 11.322 10.027 z M171.68 21.792999999999996 l-7.215 0 l0 15.355 l-3.811 0 l0 -15.355 l-6.956 0 l0 -3.811 l17.982 0 l0 3.811 z M175.01000000000002 34.854 c0 -1.221 0.962 -2.22 2.183 -2.22 s2.22 0.999 2.22 2.22 s-0.999 2.183 -2.22 2.183 s-2.183 -0.962 -2.183 -2.183 z M193.80600000000004 30.266 l-5.476 6.882 l-5.217 0 l8.14 -10.138 l-7.067 -9.028 l5.217 0 l4.514 5.772 l4.625 -5.772 l5.069 0 l-7.178 8.991 l7.992 10.175 l-5.18 0 z M227.32800000000003 17.981999999999996 l-7.918 11.433 l0 7.733 l-3.774 0 l0 -7.733 l-8.066 -11.433 l4.81 0 l5.106 7.548 l5.254 -7.548 l4.588 0 z M246.71600000000004 37.147999999999996 l-15.873 0 l0 -3.848 l10.101 -11.507 l-9.731 0 l0 -3.811 l14.763 0 l0 3.811 l-10.101 11.507 l10.841 0 l0 3.848 z"/></g><g id="SvgjsG1009" rel="mainfill" name="symbol" xmlns:name="symbol_mainfill" fill="#FFFFFF" transform="translate(81.95744474815002, -13.31778114473673) scale(1.2619901241542013)"><g xmlns="http://www.w3.org/2000/svg" display="none"><rect x="-410.995" y="-171.479" display="inline" fill="" width="786.5" height="405.5"/></g><g xmlns="http://www.w3.org/2000/svg" display="none"><g display="inline"><g><g><path d="M58.661,49.599V12.8c0-0.88-0.72-1.6-1.6-1.6H6.938c-0.88,0-1.6,0.72-1.6,1.6v36.799      C5.338,49.599,58.795,49.599,58.661,49.599z"/></g><g><rect y="49.6" fill="" width="64" height="1.067"/></g><g><polygon fill="" points="60.8,52.8 3.2,52.8 0,50.666 64,50.666     "/></g></g><g opacity="0.2"><path fill="" d="M28.437,11.2H6.938c-0.88,0-1.6,0.72-1.6,1.6v17.346L28.437,11.2z"/></g><g opacity="0.7"><g><path fill="" d="M37.73,49.6H26.27c0.109,0.598,0.642,1.065,1.309,1.065h8.842C37.088,50.666,37.622,50.198,37.73,49.6z"/></g></g></g><g display="inline"><rect x="21.869" y="34.143" fill="" width="4.263" height="1.066"/></g><g display="inline"><rect x="21.869" y="38.406" fill="" width="4.263" height="1.066"/></g><g display="inline"><rect x="36.791" y="32.011" fill="" width="2.132" height="1.066"/></g><g display="inline"><rect x="31.462" y="32.011" fill="" width="2.132" height="1.066"/></g><g display="inline"><rect x="29.33" y="38.406" fill="" width="3.197" height="1.066"/></g><g display="inline"><rect x="28.264" y="34.143" fill="" width="4.263" height="1.066"/></g><g display="inline"><rect x="33.594" y="34.143" fill="" width="4.263" height="1.066"/></g><g display="inline"><rect x="39.988" y="34.143" fill="" width="4.263" height="1.066"/></g><g display="inline"><rect x="23.078" y="36.48" fill="" width="4.007" height="1.066"/></g><g display="inline"><rect x="21.869" y="40.538" fill="" width="10.658" height="1.066"/></g><g display="inline"><rect x="37.857" y="42.669" fill="" width="4.263" height="1.066"/></g><g display="inline"><rect x="35.725" y="40.538" fill="" width="4.263" height="1.066"/></g><g display="inline"><rect x="21.869" y="32.011" fill="" width="6.395" height="1.066"/></g><g display="inline"><path fill="" d="M20.759,23.974l7.436-3.83v1.106l-6.267,3.141v0.032l6.267,3.141v1.106l-7.436-3.83V23.974z"/></g><g display="inline"><path fill="" d="M29.234,29.31l4.472-11.618h1.09L30.308,29.31H29.234z"/></g><g display="inline"><path fill="" d="M43.239,24.855l-7.436,3.814v-1.106l6.313-3.141V24.39l-6.313-3.141v-1.106l7.436,3.814V24.855z"/></g></g><g xmlns="http://www.w3.org/2000/svg" display="none"><path display="inline" fill="" d="M32,0C14.327,0,0,14.327,0,32s14.327,32,32,32s32-14.327,32-32S49.673,0,32,0L32,0z"/><rect x="4.995" y="11.76" display="inline" fill="" width="54" height="40.236"/><g display="inline"><polygon points="60.798,53.447 3.208,53.447 0.008,50.947 63.997,50.947   "/></g><g display="inline"><path d="M60.193,49.947h-2V13.153c0-0.325-0.275-0.6-0.601-0.6H6.412c-0.325,0-0.6,0.274-0.6,0.6v36.794h-2V13.153    c0-1.434,1.166-2.6,2.6-2.6h51.18c1.434,0,2.601,1.166,2.601,2.6V49.947z"/></g><g display="inline"><g><path d="M26.234,49.447H0.003v1.5h28.076C27.139,50.947,26.387,50.289,26.234,49.447z"/></g></g><g display="inline"><g><path d="M37.76,49.447c-0.153,0.842-0.904,1.5-1.844,1.5h28.076v-1.5H37.76z"/></g></g><rect x="7.801" y="14.436" display="inline" fill="" width="48.387" height="33.01"/><rect x="21.869" y="34.143" display="inline" fill="" width="4.263" height="1.066"/><rect x="21.869" y="38.406" display="inline" width="4.263" height="1.066"/><rect x="36.791" y="32.011" display="inline" width="2.132" height="1.066"/><rect x="31.462" y="32.011" display="inline" width="2.132" height="1.066"/><rect x="29.33" y="38.406" display="inline" width="3.197" height="1.066"/><rect x="28.264" y="34.143" display="inline" width="4.263" height="1.066"/><rect x="33.594" y="34.143" display="inline" fill="" width="4.263" height="1.066"/><rect x="39.988" y="34.143" display="inline" width="4.263" height="1.066"/><rect x="23.078" y="36.48" display="inline" width="4.007" height="1.066"/><rect x="21.869" y="40.538" display="inline" fill="" width="10.658" height="1.066"/><rect x="20.804" y="42.669" display="inline" width="12.79" height="1.066"/><rect x="37.857" y="42.669" display="inline" fill="" width="4.263" height="1.066"/><rect x="35.725" y="40.538" display="inline" width="4.263" height="1.066"/><rect x="21.869" y="32.011" display="inline" width="6.395" height="1.066"/><path display="inline" fill="" d="M20.759,23.974l7.436-3.83v1.106l-6.267,3.141v0.032l6.267,3.141v1.106l-7.436-3.83   V23.974z"/><path display="inline" fill="" d="M29.234,29.31l4.472-11.618h1.09L30.308,29.31H29.234z"/><path display="inline" fill="" d="M43.239,24.855l-7.436,3.814v-1.106l6.313-3.141V24.39l-6.313-3.141v-1.106l7.436,3.814   V24.855z"/></g><g xmlns="http://www.w3.org/2000/svg" display="none"><rect x="4.995" y="11.76" display="inline" fill="" width="54" height="40.236"/><g display="inline"><polygon points="60.798,53.447 3.208,53.447 0.008,50.947 63.997,50.947   "/></g><g display="inline"><path d="M60.193,49.947h-2V13.153c0-0.325-0.275-0.6-0.601-0.6H6.412c-0.325,0-0.6,0.274-0.6,0.6v36.794h-2V13.153    c0-1.434,1.166-2.6,2.6-2.6h51.18c1.434,0,2.601,1.166,2.601,2.6V49.947z"/></g><g display="inline"><g><path d="M26.234,49.447H0.003v1.5h28.076C27.139,50.947,26.387,50.289,26.234,49.447z"/></g></g><g display="inline"><g><path d="M37.76,49.447c-0.153,0.842-0.904,1.5-1.844,1.5h28.076v-1.5H37.76z"/></g></g><rect x="7.801" y="14.436" display="inline" width="48.387" height="33.01"/><rect x="21.869" y="34.143" display="inline" fill="" width="4.263" height="1.066"/><rect x="21.869" y="38.406" display="inline" width="4.263" height="1.066"/><rect x="36.791" y="32.011" display="inline" width="2.132" height="1.066"/><rect x="31.462" y="32.011" display="inline" width="2.132" height="1.066"/><rect x="29.33" y="38.406" display="inline" width="3.197" height="1.066"/><rect x="28.264" y="34.143" display="inline" width="4.263" height="1.066"/><rect x="33.594" y="34.143" display="inline" fill="" width="4.263" height="1.066"/><rect x="39.988" y="34.143" display="inline" width="4.263" height="1.066"/><rect x="23.078" y="36.48" display="inline" width="4.007" height="1.066"/><rect x="21.869" y="40.538" display="inline" fill="" width="10.658" height="1.066"/><rect x="20.804" y="42.669" display="inline" width="12.79" height="1.066"/><rect x="37.857" y="42.669" display="inline" fill="" width="4.263" height="1.066"/><rect x="35.725" y="40.538" display="inline" width="4.263" height="1.066"/><rect x="21.869" y="32.011" display="inline" width="6.395" height="1.066"/><path display="inline" fill="" d="M20.759,23.974l7.436-3.83v1.106l-6.267,3.141v0.032l6.267,3.141v1.106l-7.436-3.83   V23.974z"/><path display="inline" fill="" d="M29.234,29.31l4.472-11.618h1.09L30.308,29.31H29.234z"/><path display="inline" fill="" d="M43.239,24.855l-7.436,3.814v-1.106l6.313-3.141V24.39l-6.313-3.141v-1.106l7.436,3.814   V24.855z"/></g><g xmlns="http://www.w3.org/2000/svg"><g><path d="M3.208,53.447h57.59l3.199-2.5h-0.006v-1.5h-3.799V13.153c0-1.434-1.167-2.6-2.601-2.6H6.412c-1.434,0-2.6,1.166-2.6,2.6    v36.294h-3.81v1.5h0.006L3.208,53.447z M5.813,13.153c0-0.325,0.274-0.6,0.6-0.6h51.18c0.325,0,0.601,0.274,0.601,0.6v36.294    H37.76c-0.153,0.842-0.904,1.5-1.844,1.5h-7.837c-0.94,0-1.691-0.658-1.844-1.5H5.813V13.153z"/><rect x="21.744" y="34.34" width="4.514" height="1.315"/><rect x="21.744" y="38.603" width="4.514" height="1.316"/><rect x="36.666" y="32.208" width="2.381" height="1.315"/><rect x="31.337" y="32.208" width="2.381" height="1.315"/><rect x="29.205" y="38.603" width="3.447" height="1.316"/><rect x="28.139" y="34.34" width="4.514" height="1.315"/><rect x="33.468" y="34.34" width="4.514" height="1.315"/><rect x="39.864" y="34.34" width="4.513" height="1.315"/><rect x="22.952" y="36.678" width="4.258" height="1.315"/><rect x="21.744" y="40.735" width="10.908" height="1.316"/><rect x="20.679" y="42.867" width="13.039" height="1.315"/><rect x="37.732" y="42.867" width="4.514" height="1.315"/><rect x="35.6" y="40.735" width="4.514" height="1.316"/><rect x="21.744" y="32.208" width="6.645" height="1.315"/><polygon points="28.32,26.808 22.175,23.728 28.25,20.683 28.32,20.649 28.32,19.261 20.701,23.185 20.634,23.22 20.634,24.237     28.32,28.197   "/><polygon points="34.911,17.059 34.978,16.889 33.619,16.889 29.052,28.757 30.394,28.757   "/><polygon points="43.364,23.203 35.86,19.355 35.678,19.261 35.678,20.649 41.868,23.729 35.747,26.773 35.678,26.808     35.678,28.197 43.364,24.253   "/></g></g></g>
		</svg>
    
